<?xml version="1.0" encoding="UTF-8" standalone="no"?>
<svg width="167px" height="129px" viewBox="0 0 167 129" version="1.1" xmlns="http://www.w3.org/2000/svg" xmlns:xlink="http://www.w3.org/1999/xlink">
    <!-- Generator: Sketch 45.1 (43504) - http://www.bohemiancoding.com/sketch -->
    <title>Group</title>
    <desc>Created with Sketch.</desc>
    <defs></defs>
    <g id="Welcome" stroke="none" stroke-width="1" fill="none" fill-rule="evenodd">
        <g id="Desktop-HD" transform="translate(-639.000000, -1316.000000)">
            <g id="Group" transform="translate(639.000000, 1316.000000)">
                <rect id="Rectangle-2" fill="#F3B679" x="0" y="28" width="167" height="101" rx="50"></rect>
                <path d="M84.8009164,28.0856697 L84.643574,128.605352 C84.643574,128.605352 105.792179,129.443061 116.276089,128.605354 C119.57721,128.34158 124.148543,128.299391 128.359871,127.390922 C133.381919,126.307564 137.808518,124.357253 137.808518,124.357253 C137.808518,124.357253 141.923541,122.713709 145.985695,119.564269 C149.846561,116.57089 153.607714,112.129774 155.688832,109.71997 C157.549481,107.565453 159.159385,104.862044 160.96294,101.660911 C163.888017,96.469188 164.989069,88.8322305 164.989069,88.8322305 C164.989069,88.8322305 166.870554,79.3586162 166.434399,74.6462204 C166.00349,69.9905164 163.459789,60.7404625 163.459789,60.7404625 C163.459789,60.7404625 158.088803,49.3449679 154.045704,45.2724907 C150.554522,41.7559406 143.150814,34.435281 143.150814,34.435281 C143.150814,34.435281 139.885704,31.8509336 134.122788,30.0081083 C128.359871,28.1652831 127.170102,28.1652831 124.195896,28.1652831 C120.926949,28.1652831 110.464877,28.1652831 110.464877,28.1652831 L84.8009164,28.0856697 Z" id="Path-2" fill="#EE9D4B"></path>
                <rect id="Rectangle-2-Copy" fill="#EC8B00" x="19.5" y="27.9848095" width="128" height="101" rx="50"></rect>
                <rect id="Rectangle-2-Copy-2" fill="#F0A961" x="38.5" y="27.9848095" width="90" height="101" rx="45"></rect>
                <path d="M124.088093,52.3544789 C121.229348,46.5847824 116.1863,40.6054078 112.721335,37.7087403 C109.222781,34.7839927 102.284452,31.3746395 96.3670325,29.7263295 C89.9069905,27.9268706 84.5953069,28.0215721 84.5953069,28.0215721 L84.5953069,128.982342 C84.5953069,128.982342 90.1851205,129.290566 96.3670325,127.331539 C102.540733,125.375114 109.304266,121.15345 112.721335,118.126827 C116.293866,114.962506 121.196442,109.573215 124.088093,103.844814 C127.560057,96.9668071 128.697403,90.268394 128.697403,90.268394 C128.697403,90.268394 129.873537,84.1908022 129.896271,81.5820727 C129.924271,78.3691422 129.99157,77.964023 129.896271,75.225635 C129.769901,71.5944086 127.800263,64.1403771 127.800263,64.1403771 C127.800263,64.1403771 127.07373,58.3802743 124.088093,52.3544789 Z" id="Path-1" fill="#EE9D4B"></path>
                <polygon id="Path-3" fill="#643D3D" points="79.9410891 27.8188917 89.3636841 27.8188917 88.3223689 21.5971489 96.8036272 5.26526628 92.1692363 0.904662847 82.3374984 18.3301571"></polygon>
            </g>
        </g>
    </g>
</svg>