<?xml version="1.0" encoding="UTF-8"?>
<svg width="463px" height="152px" viewBox="0 0 463 152" version="1.1" xmlns="http://www.w3.org/2000/svg" xmlns:xlink="http://www.w3.org/1999/xlink">
    <!-- Generator: Sketch 42 (36781) - http://www.bohemiancoding.com/sketch -->
    <title>truck</title>
    <desc>Created with Sketch.</desc>
    <defs></defs>
    <g id="Welcome" stroke="none" stroke-width="1" fill="none" fill-rule="evenodd">
        <g id="Desktop-HD" transform="translate(-486.000000, -332.000000)">
            <g id="truck" transform="translate(486.000000, 332.000000)">
                <g id="Group">
                    <rect id="Rectangle-path" fill="#3A3A59" fill-rule="nonzero" x="10.5297715" y="109.832537" width="96.9778953" height="21.0480471"></rect>
                    <polygon id="Shape" fill="#3A3A59" fill-rule="nonzero" points="450.375225 130.880584 235.164896 130.880584 235.164896 109.832537 440.430441 109.832537 450.310227 119.463613"></polygon>
                    <rect id="Rectangle-path" fill="#FF8C4C" fill-rule="nonzero" x="0.129997179" y="94.5248662" width="311.993229" height="15.3076706"></rect>
                    <path d="M410.466092,79.5998873 L402.471265,47.1986511 L384.336659,47.1986511 C384.27166,47.1986511 372.961906,25.5127844 347.352461,25.5127844 L341.242594,25.5127844 L341.242594,47.1986511 L341.242594,125.203989 L410.466092,125.203989 L410.466092,133.814554 L456.940083,133.814554 L456.940083,83.2354591 L410.466092,79.5998873 Z" id="fix_1_" fill="#FF8C4C" fill-rule="nonzero"></path>
                    <rect id="Rectangle-path" fill="#3A3A59" fill-rule="nonzero" x="331.687801" y="0" width="9.48979404" height="109.832537"></rect>
                    <g transform="translate(61.748660, 112.256251)" fill-rule="nonzero" id="Oval">
                        <ellipse fill="#FF8C4C" cx="20.0845641" cy="19.7086259" rx="19.8245697" ry="19.4534981"></ellipse>
                        <ellipse fill="#3A3A59" cx="20.0845641" cy="19.7086259" rx="10.9847616" ry="10.7791514"></ellipse>
                        <g transform="translate(11.049760, 10.842933)" fill="#FF8C4C">
                            <ellipse cx="16.769636" cy="8.86569258" rx="1.10497602" ry="1.08429334"></ellipse>
                            <ellipse cx="1.36497038" cy="8.86569258" rx="1.10497602" ry="1.08429334"></ellipse>
                            <ellipse cx="9.03480392" cy="16.391964" rx="1.10497602" ry="1.08429334"></ellipse>
                            <ellipse cx="9.03480392" cy="1.27563922" rx="1.10497602" ry="1.08429334"></ellipse>
                            <ellipse cx="14.4946854" cy="3.50800785" rx="1.10497602" ry="1.08429334"></ellipse>
                            <ellipse cx="3.57492241" cy="14.2233773" rx="1.10497602" ry="1.08429334"></ellipse>
                            <ellipse cx="14.4946854" cy="14.2233773" rx="1.10497602" ry="1.08429334"></ellipse>
                            <ellipse cx="3.57492241" cy="3.50800785" rx="1.10497602" ry="1.08429334"></ellipse>
                        </g>
                    </g>
                    <g transform="translate(16.256319, 112.256251)" fill-rule="nonzero" id="Oval">
                        <ellipse fill="#FF8C4C" cx="20.0845641" cy="19.7086259" rx="19.8245697" ry="19.4534981"></ellipse>
                        <ellipse fill="#3A3A59" cx="20.0845641" cy="19.7086259" rx="10.9847616" ry="10.7791514"></ellipse>
                        <g transform="translate(11.049760, 10.842933)" fill="#FF8C4C">
                            <ellipse cx="16.769636" cy="8.86569258" rx="1.10497602" ry="1.08429334"></ellipse>
                            <ellipse cx="1.36497038" cy="8.86569258" rx="1.10497602" ry="1.08429334"></ellipse>
                            <ellipse cx="9.03480392" cy="16.391964" rx="1.10497602" ry="1.08429334"></ellipse>
                            <ellipse cx="9.03480392" cy="1.27563922" rx="1.10497602" ry="1.08429334"></ellipse>
                            <ellipse cx="14.4946854" cy="3.50800785" rx="1.10497602" ry="1.08429334"></ellipse>
                            <ellipse cx="3.57492241" cy="14.2233773" rx="1.10497602" ry="1.08429334"></ellipse>
                            <ellipse cx="14.4946854" cy="14.2233773" rx="1.10497602" ry="1.08429334"></ellipse>
                            <ellipse cx="3.57492241" cy="3.50800785" rx="1.10497602" ry="1.08429334"></ellipse>
                        </g>
                    </g>
                    <rect id="Rectangle-path" fill="#3A3A59" fill-rule="nonzero" x="347.027468" y="58.6156221" width="16.3796445" height="2.2961506"></rect>
                    <rect id="Rectangle-path" fill="#3A3A59" fill-rule="nonzero" x="347.027468" y="65.440292" width="16.3796445" height="2.2961506"></rect>
                    <rect id="Rectangle-path" fill="#3A3A59" fill-rule="nonzero" x="347.027468" y="72.3287438" width="16.3796445" height="2.2961506"></rect>
                    <polygon id="Shape" fill="#FFCE4A" fill-rule="nonzero" points="371.271942 79.5998873 405.266204 79.5998873 398.961341 54.0871029 369.51698 54.0871029"></polygon>
                    <polygon id="Shape" fill="#FFFFFF" fill-rule="nonzero" opacity="0.3" points="371.271942 79.5998873 405.266204 79.5998873 398.961341 54.0871029 397.271378 54.0871029"></polygon>
                    <rect id="Rectangle-path" fill="#3A3A59" fill-rule="nonzero" x="371.271942" y="85.3402638" width="9.35979686" height="2.2961506"></rect>
                    <path d="M378.031796,113.276763 L332.337787,113.276763 C332.337787,113.276763 329.477849,116.784771 329.477849,123.035403 C329.477849,128.584433 332.337787,132.794043 332.337787,132.794043 L378.031796,132.794043 C378.031796,132.794043 379.461764,130.051418 379.461764,123.035403 C379.396766,118.124192 378.031796,113.276763 378.031796,113.276763 Z" id="Shape" fill="#3A3A59" fill-rule="nonzero"></path>
                    <polygon id="Shape" fill="#3A3A59" fill-rule="nonzero" points="444.265358 134.388592 428.860692 134.388592 407.801149 130.880584 398.441353 130.880584 398.636348 119.463613 409.036123 109.258499 433.735587 109.258499 444.135361 119.463613"></polygon>
                    <path d="M459.215034,122.333801 L453.625155,122.333801 L453.625155,133.814554 L459.215034,133.814554 C460.645003,133.814554 461.814977,132.666479 461.814977,131.263276 L461.814977,124.88508 C461.814977,123.481876 460.645003,122.333801 459.215034,122.333801 Z" id="Shape" fill="#3A3A59" fill-rule="nonzero"></path>
                    <path d="M458.305053,88.8482717 L454.405138,88.8482717" id="Shape" stroke="#3A3A59" stroke-width="8" stroke-linecap="round"></path>
                    <path d="M458.305053,97.7777462 L454.405138,97.7777462" id="Shape" stroke="#3A3A59" stroke-width="8" stroke-linecap="round"></path>
                    <path d="M458.305053,106.069401 L454.405138,106.069401" id="Shape" stroke="#3A3A59" stroke-width="8" stroke-linecap="round"></path>
                    <g transform="translate(241.190673, 112.256251)" fill-rule="nonzero" id="Oval">
                        <ellipse fill="#FF8C4C" cx="20.0845641" cy="19.7086259" rx="19.8245697" ry="19.4534981"></ellipse>
                        <ellipse fill="#3A3A59" cx="20.0845641" cy="19.7086259" rx="10.9847616" ry="10.7791514"></ellipse>
                        <g transform="translate(11.049760, 10.842933)" fill="#FF8C4C">
                            <ellipse cx="16.769636" cy="8.86569258" rx="1.10497602" ry="1.08429334"></ellipse>
                            <ellipse cx="1.36497038" cy="8.86569258" rx="1.10497602" ry="1.08429334"></ellipse>
                            <ellipse cx="9.03480392" cy="16.391964" rx="1.10497602" ry="1.08429334"></ellipse>
                            <ellipse cx="9.03480392" cy="1.27563922" rx="1.10497602" ry="1.08429334"></ellipse>
                            <ellipse cx="14.4946854" cy="3.50800785" rx="1.10497602" ry="1.08429334"></ellipse>
                            <ellipse cx="3.57492241" cy="14.2233773" rx="1.10497602" ry="1.08429334"></ellipse>
                            <ellipse cx="14.4946854" cy="14.2233773" rx="1.10497602" ry="1.08429334"></ellipse>
                            <ellipse cx="3.57492241" cy="3.50800785" rx="1.10497602" ry="1.08429334"></ellipse>
                        </g>
                    </g>
                    <g transform="translate(286.683014, 112.256251)" fill-rule="nonzero" id="Oval">
                        <ellipse fill="#FF8C4C" cx="20.0845641" cy="19.7086259" rx="19.8245697" ry="19.4534981"></ellipse>
                        <ellipse fill="#3A3A59" cx="20.0845641" cy="19.7086259" rx="10.9847616" ry="10.7791514"></ellipse>
                        <g transform="translate(11.049760, 10.842933)" fill="#FF8C4C">
                            <ellipse cx="16.769636" cy="8.86569258" rx="1.10497602" ry="1.08429334"></ellipse>
                            <ellipse cx="1.36497038" cy="8.86569258" rx="1.10497602" ry="1.08429334"></ellipse>
                            <ellipse cx="9.03480392" cy="16.391964" rx="1.10497602" ry="1.08429334"></ellipse>
                            <ellipse cx="9.03480392" cy="1.27563922" rx="1.10497602" ry="1.08429334"></ellipse>
                            <ellipse cx="14.4946854" cy="3.50800785" rx="1.10497602" ry="1.08429334"></ellipse>
                            <ellipse cx="3.57492241" cy="14.2233773" rx="1.10497602" ry="1.08429334"></ellipse>
                            <ellipse cx="14.4946854" cy="14.2233773" rx="1.10497602" ry="1.08429334"></ellipse>
                            <ellipse cx="3.57492241" cy="3.50800785" rx="1.10497602" ry="1.08429334"></ellipse>
                        </g>
                    </g>
                    <g transform="translate(400.919338, 112.256251)" fill-rule="nonzero" id="Oval">
                        <ellipse fill="#FF8C4C" cx="20.0845641" cy="19.7086259" rx="19.8245697" ry="19.4534981"></ellipse>
                        <ellipse fill="#3A3A59" cx="20.0845641" cy="19.7086259" rx="10.9847616" ry="10.7791514"></ellipse>
                        <g transform="translate(11.049760, 10.842933)" fill="#FF8C4C">
                            <ellipse cx="16.769636" cy="8.86569258" rx="1.10497602" ry="1.08429334"></ellipse>
                            <ellipse cx="1.36497038" cy="8.86569258" rx="1.10497602" ry="1.08429334"></ellipse>
                            <ellipse cx="9.03480392" cy="16.391964" rx="1.10497602" ry="1.08429334"></ellipse>
                            <ellipse cx="9.03480392" cy="1.27563922" rx="1.10497602" ry="1.08429334"></ellipse>
                            <ellipse cx="14.4946854" cy="3.50800785" rx="1.10497602" ry="1.08429334"></ellipse>
                            <ellipse cx="3.57492241" cy="14.2233773" rx="1.10497602" ry="1.08429334"></ellipse>
                            <ellipse cx="14.4946854" cy="14.2233773" rx="1.10497602" ry="1.08429334"></ellipse>
                            <ellipse cx="3.57492241" cy="3.50800785" rx="1.10497602" ry="1.08429334"></ellipse>
                        </g>
                    </g>
                </g>
            </g>
        </g>
    </g>
</svg>